<?xml version="1.0" encoding="UTF-8"?>
<svg width="120px" height="144px" viewBox="0 0 120 144" version="1.1" xmlns="http://www.w3.org/2000/svg" xmlns:xlink="http://www.w3.org/1999/xlink">
    <title>Torchbox Flame</title>
    <g id="mock" stroke="none" stroke-width="1" fill="none" fill-rule="evenodd">
        <path d="M119.410634,76.2806422 C119.226702,74.8091861 117.295416,74.4413221 116.559688,75.7288462 C112.237285,83.4539909 106.167529,90.0755435 101.937092,92.0987957 L101.937092,91.2711016 C101.201364,37.8388507 62.5756407,8.86955798 48.9646714,0.4086852 C47.6771473,-0.419008877 46.1137252,0.960481251 46.7574872,2.33997138 C55.6781901,20.8251391 52.3674138,38.2986807 37.3769544,55.3123923 C34.5260081,58.4392366 31.3991638,62.4857409 28.7321496,66.5322453 C28.7321496,66.5322453 25.5133393,71.2225118 22.478461,77.6601324 L22.294529,77.4762003 C16.1328064,68.0956675 14.7533163,56.8758144 14.4774182,50.7140919 C14.3854522,49.2426357 12.5461321,48.6908397 11.718438,49.7944318 C7.85586563,55.1284603 1.23431302,65.9804493 0.222686926,77.8440644 C-2.1684293,106.537459 14.8452823,135.874616 44.090473,143.691726 C45.4699631,144.059591 46.4815892,142.588134 45.6538951,141.392576 C43.0788469,137.346072 41.5154247,131.644179 41.5154247,124.286899 C41.5154247,107.273187 59.9086265,81.4307387 59.9086265,81.4307387 C59.9086265,81.4307387 78.3018282,107.273187 78.3018282,124.286899 C78.3018282,131.736145 76.738406,137.438038 74.1633578,141.484542 C73.4276297,142.6801 74.4392558,144.151557 75.7267799,143.783692 C104.144277,136.426412 117.479348,110.216099 119.5026,94.1220479 C120.42226,87.0406652 119.870464,80.5110786 119.410634,76.2806422 L119.410634,76.2806422 Z" id="Path-Copy" fill="#FD5765" fill-rule="nonzero"></path>
    </g>
</svg>